HIERARCHY
ROOT Hips
{
	OFFSET -3.958830 18.904000 13.208200
	CHANNELS 6 Xposition Yposition Zposition Zrotation Yrotation Xrotation 
	JOINT LHipJoint
	{
		OFFSET 0.000000 0.000000 0.000000
		CHANNELS 3 Zrotation Yrotation Xrotation
		JOINT LeftUpLeg
		{
			OFFSET 1.800000 -1.400000 0.085000
			CHANNELS 3 Zrotation Yrotation Xrotation
			JOINT LeftLeg
			{
				OFFSET 2.215000 -6.000000 0.000000
				CHANNELS 3 Zrotation Yrotation Xrotation
				JOINT LeftFoot
				{
					OFFSET 2.500000 -6.900000 0.000000
					CHANNELS 3 Zrotation Yrotation Xrotation
					JOINT LeftToeBase
					{
						OFFSET 0.200000 -0.500000 1.950000
						CHANNELS 3 Zrotation Yrotation Xrotation
						End Site
						{
							OFFSET 0.000000 0.000000 0.000000
						}
					}
				}
			}
		}
	}
	JOINT RHipJoint
	{
		OFFSET 0.000000 0.000000 0.000000
		CHANNELS 3 Zrotation Yrotation Xrotation
		JOINT RightUpLeg
		{
			OFFSET -1.800000 -1.400000 0.085000
			CHANNELS 3 Zrotation Yrotation Xrotation
			JOINT RightLeg
			{
				OFFSET -2.215000 -6.000000 0.000000
				CHANNELS 3 Zrotation Yrotation Xrotation
				JOINT RightFoot
				{
					OFFSET -2.500000 -6.900000 0.000000
					CHANNELS 3 Zrotation Yrotation Xrotation
					JOINT RightToeBase
					{
						OFFSET -0.200000 -0.500000 1.950000
						CHANNELS 3 Zrotation Yrotation Xrotation
						End Site
						{
							OFFSET 0.000000 0.000000 0.000000
						}
					}
				}
			}
		}
	}
	JOINT LowerBack
	{
		OFFSET 0.000000 0.000000 0.000000
		CHANNELS 3 Zrotation Yrotation Xrotation
		JOINT Spine
		{
			OFFSET -0.087000 1.940000 -0.288900
			CHANNELS 3 Zrotation Yrotation Xrotation
			JOINT Spine1
			{
				OFFSET 0.000000 1.950000 0.060000
				CHANNELS 3 Zrotation Yrotation Xrotation
				JOINT Neck
				{
					OFFSET 0.000000 0.000000 0.000000
					CHANNELS 3 Zrotation Yrotation Xrotation
					JOINT Neck1
					{
						OFFSET 0.000000 1.600000 0.340000
						CHANNELS 3 Zrotation Yrotation Xrotation
						JOINT Head
						{
							OFFSET 0.000000 1.667000 -0.240000
							CHANNELS 3 Zrotation Yrotation Xrotation
							End Site
							{
								OFFSET 0.000000 0.000000 0.000000
							}
						}
					}
				}
				JOINT LeftShoulder
				{
					OFFSET 0.000000 0.000000 0.000000
					CHANNELS 3 Zrotation Yrotation Xrotation
					JOINT LeftArm
					{
						OFFSET 2.700000 1.550000 -0.730000
						CHANNELS 3 Zrotation Yrotation Xrotation
						JOINT LeftForeArm
						{
							OFFSET 5.450000 0.000000 0.000000
							CHANNELS 3 Zrotation Yrotation Xrotation
							JOINT LeftHand
							{
								OFFSET 3.450000 0.000000 0.000000
								CHANNELS 3 Zrotation Yrotation Xrotation
								JOINT LeftHandIndex1
								{
									OFFSET 0.750000 0.000000 0.000000
									CHANNELS 3 Zrotation Yrotation Xrotation
									End Site
									{
										OFFSET 0.000000 0.000000 0.000000
									}
								}
							}
						}
					}
				}
				JOINT RightShoulder
				{
					OFFSET 0.000000 0.000000 0.000000
					CHANNELS 3 Zrotation Yrotation Xrotation
					JOINT RightArm
					{
						OFFSET -2.700000 1.550000 -0.730000
						CHANNELS 3 Zrotation Yrotation Xrotation
						JOINT RightForeArm
						{
							OFFSET -5.450000 0.000000 0.000000
							CHANNELS 3 Zrotation Yrotation Xrotation
							JOINT RightHand
							{
								OFFSET -3.450000 0.000000 0.000000
								CHANNELS 3 Zrotation Yrotation Xrotation
								JOINT RightHandIndex1
								{
									OFFSET -0.750000 0.000000 0.000000
									CHANNELS 3 Zrotation Yrotation Xrotation
									End Site
									{
										OFFSET 0.000000 0.000000 0.000000
									}
								}
							}
						}
					}
				}
			}
		}
	}
}
MOTION
Frames: 10
Frame Time: 0.016667
0.135060 15.525940 1.379380 -5.849012 -9.575991 -1.032841 -16.258311 8.032041 7.708553 48.178825 8.674258 -45.739631 -43.915140 39.205821 42.923828 1.797313 13.799197 -0.072284 0.377700 0.285780 0.210570 18.455184 -5.144119 4.816203 -39.134344 9.476646 -45.919579 41.105382 -34.585590 50.728890 -2.548048 -12.277820 0.337108 0.019840 -0.024320 0.170200 -2.787241 -2.742042 -11.429519 4.974544 -1.365223 47.105318 -2.536636 3.235886 -2.513341 3.672280 -4.194967 -11.095684 -10.015901 0.288139 39.271038 0.854980 -2.241040 -28.002030 -25.149520 -11.640799 4.626625 -35.703645 7.536539 -6.794378 -7.014961 -12.616623 -1.017191 -3.433273 2.757784 0.737120 -0.257160 0.344020 0.135920 17.772826 19.873551 6.870267 24.470078 -0.869618 -18.338132 -25.949295 55.836401 -11.745466 1.725454 -0.959604 -0.039070 0.329770 0.042700 -0.092800 
0.149930 15.521030 1.385580 -5.823157 -9.595510 -1.111093 -16.267369 8.043175 7.698892 48.209386 8.750466 -45.552993 -44.230464 39.345925 42.734563 1.810769 13.776627 -0.069769 0.381630 0.292150 0.207050 18.447571 -5.130740 4.820929 -39.360616 9.418434 -45.858430 41.191001 -34.748479 50.852043 -2.561690 -12.317934 0.321008 0.015350 -0.032790 0.187570 -2.763754 -2.775873 -11.430545 4.669392 -1.149698 46.958855 -2.257344 3.245640 -2.603626 3.552918 -4.226468 -11.128149 -10.070797 0.237585 39.086548 0.564000 -2.216330 -28.068860 -25.125899 -11.647376 4.751437 -35.210485 7.814598 -6.627018 -6.367523 -12.174433 -1.026712 -3.436656 2.778398 0.731890 -0.257110 0.351530 0.136320 18.020685 19.940480 6.847983 24.818684 -0.844797 -18.491157 -24.903596 56.718179 -11.573503 1.727627 -0.979880 -0.021330 0.307650 0.041290 -0.087340 
0.190040 15.531620 1.401180 -5.980454 -9.585652 -1.683426 -16.272596 8.108172 7.678714 48.169763 8.719229 -44.994482 -44.592626 39.422803 42.514213 1.804822 13.754580 -0.078630 0.384970 0.284970 0.219260 18.430252 -5.187685 4.762495 -39.442184 9.454300 -44.880456 41.390853 -34.484307 50.394292 -2.543086 -12.241897 0.322970 0.009040 -0.055270 0.201080 -2.726317 -2.797931 -11.401297 4.345644 -0.832369 47.125142 -1.963906 3.393006 -2.679794 3.425558 -3.981509 -11.205299 -9.586704 -0.130759 39.045583 0.365690 -2.204420 -28.456510 -25.027072 -11.681534 4.974918 -33.966635 8.507182 -6.385728 -5.656776 -11.516714 -1.046668 -3.438524 2.792521 0.743560 -0.266220 0.359280 0.121840 18.179443 19.954254 6.838199 25.377607 -0.616289 -18.529911 -21.633829 57.612781 -10.398498 1.739726 -1.018317 -0.013780 0.281420 0.045220 -0.099820 
0.247470 15.559180 1.429330 -6.266616 -9.362143 -1.879439 -16.256501 8.192899 7.651440 47.909704 8.516862 -44.445585 -45.070738 39.264439 41.940462 1.818220 13.716669 -0.059214 0.363380 0.256170 0.197340 18.425486 -5.291392 4.679571 -39.145301 9.354779 -43.755569 41.326650 -33.801419 49.518026 -2.474000 -12.076713 0.362711 -0.007560 -0.035490 0.199000 -2.728572 -2.806581 -11.349913 4.421152 -0.956778 46.348065 -1.656772 3.256328 -2.754828 3.116359 -4.323481 -11.427351 -10.158959 0.174799 38.558736 0.787510 -2.285450 -27.410430 -24.514401 -11.636011 5.287221 -33.005087 9.179982 -5.911643 -4.859603 -9.530134 -1.103703 -3.473083 2.790836 0.723970 -0.254450 0.335330 0.119760 18.344922 20.091251 6.961165 25.385573 -0.673375 -18.241526 -15.840687 58.700212 -8.038710 1.773497 -1.091535 -0.014690 0.272710 0.055830 -0.091760 
0.312430 15.625690 1.461330 -6.510692 -9.121050 -2.712913 -16.240250 8.412126 7.578058 47.073112 7.878313 -43.504367 -44.380425 38.835992 42.143146 1.854308 13.719861 -0.039235 0.336520 0.232790 0.163960 18.394206 -5.491881 4.504958 -38.339980 9.331580 -41.544545 40.230908 -32.624055 48.977296 -2.386153 -11.864324 0.424276 -0.027390 -0.009900 0.183670 -2.682508 -2.904799 -11.248703 4.144652 -0.874800 45.982503 -0.956983 3.180292 -2.891539 2.774702 -4.732557 -11.740570 -11.007628 0.407426 38.589312 1.247570 -2.602410 -26.102830 -24.195423 -11.639102 5.732570 -31.926840 10.274528 -5.552517 -3.560035 -8.067597 -1.078416 -3.485615 2.786852 0.696790 -0.246190 0.315560 0.134440 18.825084 20.403999 7.153381 24.660763 -1.100432 -17.992081 -9.937547 60.227328 -5.617752 1.817971 -1.170185 -0.015400 0.278440 0.053960 -0.070400 
0.380280 15.726230 1.496470 -6.582558 -9.142631 -3.350713 -16.218568 8.652530 7.475394 45.895623 7.366826 -42.382013 -43.683348 38.031639 41.778014 1.889363 13.650603 0.005607 0.310500 0.214860 0.122790 18.360036 -5.735971 4.325391 -37.375308 9.447660 -39.366176 38.872767 -30.950678 48.102606 -2.265142 -11.564428 0.518259 -0.049140 0.021420 0.169000 -2.643622 -2.935617 -11.129199 3.575369 -0.503438 45.099235 -0.229278 3.193810 -3.071190 2.382007 -5.032606 -12.100024 -11.604324 0.475467 38.559444 1.568940 -2.972380 -24.077860 -23.729946 -11.531742 6.277974 -30.774595 12.148697 -5.489595 -3.173848 -7.249464 -1.029767 -3.485708 2.802336 0.653780 -0.228490 0.290080 0.160310 19.261194 20.621551 7.321280 23.827616 -1.091032 -17.286107 -2.810675 60.951478 -2.333947 1.875927 -1.272318 -0.008770 0.274920 0.041290 -0.040390 
0.448950 15.857420 1.542610 -6.685798 -9.467970 -3.719294 -16.172046 8.936306 7.304035 44.306402 6.820941 -40.761619 -42.644754 36.621972 40.825531 1.876264 13.512157 0.058032 0.271120 0.177410 0.066640 18.332422 -6.062733 4.137521 -36.102520 9.564969 -37.052062 37.472142 -28.779384 46.514271 -2.093099 -11.120080 0.648857 -0.072950 0.071250 0.152620 -2.649792 -2.869252 -10.960467 3.132714 -0.077463 43.598395 0.362880 3.291990 -3.378420 1.832587 -5.383950 -12.124456 -12.191809 0.567509 38.125524 2.628140 -3.530410 -22.198860 -22.980753 -10.647118 6.456091 -29.640594 13.709617 -5.397448 -3.290489 -6.557949 -1.011448 -3.505185 2.810963 0.612330 -0.203600 0.247560 0.178350 19.677027 20.005337 7.261765 23.183789 -0.840286 -16.201895 5.424496 61.651617 1.645978 1.936522 -1.364214 -0.014700 0.280000 0.049150 -0.012460 
0.529970 16.016230 1.586880 -6.931165 -9.856491 -3.793644 -16.110280 9.250102 7.128253 42.388135 6.192826 -39.392936 -41.228457 34.883694 39.781778 1.832517 13.338770 0.107142 0.237180 0.138290 0.015710 18.307037 -6.459034 3.898453 -34.248466 9.541356 -34.672679 35.111118 -26.084094 44.709854 -1.871939 -10.537807 0.799830 -0.090460 0.121740 0.151620 -2.675521 -2.765803 -10.754788 3.013117 0.085672 41.307575 0.972787 3.193070 -3.207282 1.299338 -5.924968 -12.105300 -13.028992 1.156159 37.618302 3.312010 -3.744110 -19.811330 -21.674335 -9.524628 6.547522 -29.413879 14.905482 -5.416542 -3.564573 -5.674850 -1.048255 -3.543209 2.836606 0.566110 -0.172510 0.202000 0.192410 19.479460 19.248203 7.094776 22.509987 0.240735 -14.670297 14.209983 61.338491 6.036552 2.004795 -1.450486 -0.017650 0.270870 0.062800 0.012630 
0.612540 16.204520 1.623400 -7.129307 -9.671951 -3.176781 -16.026566 9.548818 6.923388 39.514783 5.129466 -39.134450 -38.517797 32.486729 39.058433 1.709671 13.097423 0.152755 0.188430 0.084940 -0.041800 18.289652 -6.921538 3.670265 -32.186754 9.148644 -32.699208 32.476165 -23.109069 42.133116 -1.595056 -9.798812 1.003561 -0.107760 0.180230 0.160360 -2.719890 -2.544125 -10.517558 3.043585 0.445507 37.995723 1.460909 3.207578 -2.429679 0.870219 -5.808395 -11.947697 -12.497205 1.018333 36.737453 2.848850 -3.769700 -17.244350 -19.707341 -8.460461 6.470832 -29.529508 14.732213 -5.196466 -3.327887 -4.348815 -1.068104 -3.634650 2.844193 0.513150 -0.114280 0.141830 0.190800 18.322394 18.055427 6.860377 23.515647 1.530989 -13.495882 19.873857 61.014531 8.725071 2.033882 -1.495096 -0.028140 0.256640 0.097750 0.025090 
0.697690 16.436880 1.655060 -7.349486 -9.849525 -2.727515 -15.928087 9.984770 6.649733 36.237850 4.057623 -38.404892 -35.120503 29.562788 38.030029 1.576645 12.643881 0.268535 0.156120 0.051890 -0.084640 18.251353 -7.521108 3.363732 -29.005053 8.788790 -30.414594 28.428831 -19.423389 39.298652 -1.268582 -8.788023 1.298341 -0.125810 0.229920 0.176560 -2.747866 -2.309345 -10.205364 2.970602 1.144925 34.743859 2.200028 3.546378 -1.646509 0.455776 -5.690440 -11.916866 -12.059458 1.089336 36.320275 2.402130 -3.615080 -13.960570 -17.878887 -7.536260 6.415442 -30.240073 14.306190 -5.126401 -2.624762 -3.756457 -0.992243 -3.698615 2.880967 0.443730 -0.063000 0.097550 0.208230 17.340326 17.093629 6.814154 24.460408 2.321632 -12.437520 25.088060 60.796158 11.142980 2.081705 -1.570040 -0.017560 0.226440 0.101380 0.052770 
